<?xml version="1.0" encoding="utf-8"?>
<!-- Generator: Adobe Illustrator 23.0.3, SVG Export Plug-In . SVG Version: 6.00 Build 0)  -->
<svg version="1.1" id="Layer_1" xmlns="http://www.w3.org/2000/svg" xmlns:xlink="http://www.w3.org/1999/xlink" x="0px" y="0px"
     viewBox="0 0 20 20" style="enable-background:new 0 0 20 20;" xml:space="preserve">
<style type="text/css">
	.st0{fill:#83A3D7;}
</style>
    <g>
	<path class="st0" d="M14.9,0.8H5.1c-1.1,0-2,0.9-2,2v14.5c0,1.1,0.9,2,2,2h9.8c1.1,0,2-0.9,2-2V2.8C16.9,1.7,16,0.8,14.9,0.8z
		 M15.9,17.2c0,0.6-0.4,1-1,1H5.1c-0.6,0-1-0.4-1-1V2.8c0-0.6,0.4-1,1-1h9.8c0.6,0,1,0.4,1,1V17.2z"/>
        <polygon class="st0" points="6.5,7.4 5.7,6.6 5,7.3 6.5,8.8 8.8,6.5 8.1,5.8 	"/>
        <polygon class="st0" points="6.5,10.4 5.7,9.6 5,10.4 6.5,11.9 8.8,9.6 8.1,8.9 	"/>
        <polygon class="st0" points="6.5,13.5 5.7,12.7 5,13.4 6.5,14.9 8.8,12.7 8.1,12 	"/>
        <rect x="10.8" y="6.7" class="st0" width="3.8" height="1"/>
        <rect x="10.8" y="9.8" class="st0" width="3.8" height="1"/>
        <rect x="10.8" y="12.8" class="st0" width="3.8" height="1"/>
</g>
</svg>
