<svg width="24" height="24" viewBox="0 0 24 24" fill="none" xmlns="http://www.w3.org/2000/svg">
<path d="M23.25 13.5V10.5H20.865C20.6521 9.16501 20.1393 7.89567 19.365 6.7875L21 5.1075L18.8925 3L17.2125 4.6725C16.1043 3.89824 14.835 3.38538 13.5 3.1725V0.75H10.5V3.135C9.16501 3.34788 7.89567 3.86074 6.7875 4.635L5.1075 3L3 5.1075L4.6725 6.7875C3.89824 7.89567 3.38538 9.16501 3.1725 10.5H0.75V13.5H3.135C3.34788 14.835 3.86074 16.1043 4.635 17.2125L3 18.8925L5.1075 21L6.795 19.3125C7.90317 20.0868 9.17251 20.5996 10.5075 20.8125V23.25H13.5075V20.865C14.8425 20.6521 16.1118 20.1393 17.22 19.365L18.8925 21L21 18.8925L19.3125 17.205C20.0868 16.0968 20.5996 14.8275 20.8125 13.4925L23.25 13.5Z" stroke="#1E1E1E" stroke-linejoin="round"/>
<path d="M12 15.75C14.0711 15.75 15.75 14.0711 15.75 12C15.75 9.92893 14.0711 8.25 12 8.25C9.92893 8.25 8.25 9.92893 8.25 12C8.25 14.0711 9.92893 15.75 12 15.75Z" stroke="#1E1E1E" stroke-linejoin="round"/>
</svg>
