<svg xmlns="http://www.w3.org/2000/svg" xmlns:xlink="http://www.w3.org/1999/xlink" version="1.1" id="Layer_1" x="0px" y="0px" viewBox="0 0 20 20" style="enable-background:new 0 0 20 20;" xml:space="preserve">
<style type="text/css">
	.st0{fill:none;stroke:#83A3D7;stroke-linecap:round;stroke-linejoin:round;stroke-miterlimit:10;}
	.st1{fill:#83A3D7;}
</style>
    <path class="st0" d="M4.3,1.8V8l2.5-2l2.7,2V1.8"/>
    <g>
	<path class="st1" d="M19.4,8.9c0,0-1.7-2.9-1.9-3.3c-0.4-0.7-1-1-1.7-1h-2.4V1.9c0-0.3-0.2-0.5-0.5-0.5H1c-0.3,0-0.5,0.2-0.5,0.5   v10.5v3c0,0.3,0.2,0.5,0.5,0.5h2.7c0,1.3,1.1,2.3,2.4,2.3s2.3-1,2.4-2.3h4.3c0,1.3,1.1,2.3,2.4,2.3s2.3-1,2.4-2.3H19   c0.3,0,0.5-0.2,0.5-0.5V9.2C19.5,9.1,19.5,9,19.4,8.9z M15.8,5.7c0.4,0,0.6,0.2,0.8,0.5c0.2,0.3,1.5,2.6,1.9,3.2v2.5h-5.1V5.7H15.8   z M1.5,2.4h10.9v9.5H1.5V2.4z M6.1,17.2c-0.8,0-1.4-0.6-1.4-1.4c0-0.1,0-0.2,0-0.3c0.1-0.6,0.7-1.1,1.4-1.1s1.2,0.4,1.4,1.1   c0,0,0,0,0,0c0,0.1,0,0.2,0,0.3C7.5,16.6,6.9,17.2,6.1,17.2z M15.2,17.2c-0.8,0-1.4-0.6-1.4-1.4c0-0.1,0-0.2,0-0.3   c0.1-0.6,0.7-1.1,1.4-1.1c0.7,0,1.2,0.4,1.4,1.1c0,0.1,0,0.2,0,0.3C16.6,16.6,16,17.2,15.2,17.2z M17.4,14.9   c-0.4-0.9-1.2-1.5-2.2-1.5c-1,0-1.8,0.6-2.2,1.5H8.3c-0.4-0.9-1.2-1.5-2.2-1.5c-1,0-1.8,0.6-2.2,1.5H1.5v-2h16.9v2H17.4z"/>
        <path class="st1" d="M14.5,9.7h2.8c0.2,0,0.3-0.1,0.4-0.3c0.1-0.2,0.1-0.4,0-0.5l-1.3-2c-0.3-0.5-0.8-0.7-1.1-0.7h-0.8   c-0.3,0-0.5,0.2-0.5,0.5v2.5C14,9.5,14.2,9.7,14.5,9.7z M15,7.2h0.3c0,0,0.1,0,0.3,0.2l0.8,1.3H15V7.2z"/>
</g>
</svg>
