<svg xmlns="http://www.w3.org/2000/svg" xmlns:xlink="http://www.w3.org/1999/xlink" version="1.1" id="Layer_1" x="0px" y="0px" viewBox="0 0 20 20" style="enable-background:new 0 0 20 20;" xml:space="preserve">
<style type="text/css">
	.st0{fill:#1E1E1E;}
</style>
    <g>
	<path class="st0" d="M19.4,8.9c0,0-1.7-2.9-1.9-3.3c-0.4-0.7-1-1-1.7-1h-2.4V1.9c0-0.3-0.2-0.5-0.5-0.5H9.8c-0.1,0-0.1-0.1-0.2-0.1   s-0.2,0-0.2,0.1H4.5c-0.1,0-0.1-0.1-0.2-0.1s-0.2,0-0.2,0.1H1c-0.3,0-0.5,0.2-0.5,0.5v10.5v3c0,0.3,0.2,0.5,0.5,0.5h2.7   c0,1.3,1.1,2.3,2.4,2.3s2.3-1,2.4-2.3h4.3c0,1.3,1.1,2.3,2.4,2.3s2.3-1,2.4-2.3H19c0.3,0,0.5-0.2,0.5-0.5V9.2   C19.5,9.1,19.5,9,19.4,8.9z M15.8,5.7c0.4,0,0.6,0.2,0.8,0.5c0.2,0.3,1.5,2.6,1.9,3.2v2.5h-5.1V5.7H15.8z M4.8,2.4H9V7L7.1,5.5   C7,5.4,6.7,5.4,6.5,5.5L4.8,6.9V2.4z M1.5,2.4h2.3V8c0,0.2,0.1,0.4,0.3,0.5c0.1,0,0.1,0,0.2,0c0.1,0,0.2,0,0.3-0.1l2.2-1.8l2.4,1.8   c0.2,0.1,0.4,0.1,0.5,0C9.9,8.3,10,8.2,10,8V2.4h2.4v9.5H1.5V2.4z M6.1,17.2c-0.8,0-1.4-0.6-1.4-1.4c0-0.1,0-0.2,0-0.3   c0.1-0.6,0.7-1.1,1.4-1.1s1.2,0.4,1.4,1.1c0,0,0,0,0,0c0,0.1,0,0.2,0,0.3C7.5,16.6,6.9,17.2,6.1,17.2z M15.2,17.2   c-0.8,0-1.4-0.6-1.4-1.4c0-0.1,0-0.2,0-0.3c0.1-0.6,0.7-1.1,1.4-1.1c0.7,0,1.2,0.4,1.4,1.1c0,0.1,0,0.2,0,0.3   C16.6,16.6,16,17.2,15.2,17.2z M17.4,14.9c-0.4-0.9-1.2-1.5-2.2-1.5c-1,0-1.8,0.6-2.2,1.5H8.3c-0.4-0.9-1.2-1.5-2.2-1.5   c-1,0-1.8,0.6-2.2,1.5H1.5v-2h16.9v2H17.4z"/>
        <path class="st0" d="M14.5,9.7h2.8c0.2,0,0.3-0.1,0.4-0.3c0.1-0.2,0.1-0.4,0-0.5l-1.3-2c-0.3-0.5-0.8-0.7-1.1-0.7h-0.8   c-0.3,0-0.5,0.2-0.5,0.5v2.5C14,9.5,14.2,9.7,14.5,9.7z M15,7.2h0.3c0,0,0.1,0,0.3,0.2l0.8,1.3H15V7.2z"/>
</g>
</svg>
