<?xml version="1.0" encoding="utf-8"?>
<!-- Generator: Adobe Illustrator 23.0.3, SVG Export Plug-In . SVG Version: 6.00 Build 0)  -->
<svg version="1.1" id="Layer_1" xmlns="http://www.w3.org/2000/svg" xmlns:xlink="http://www.w3.org/1999/xlink" x="0px" y="0px"
     viewBox="0 0 20 20" style="enable-background:new 0 0 20 20;" xml:space="preserve">
<style type="text/css">
	.st0{fill:#83A3D7;}
</style>
    <g>
	<path class="st0" d="M18,0.3H2C1,0.3,0.3,1,0.3,2v16c0,1,0.8,1.7,1.7,1.7h16c1,0,1.7-0.8,1.7-1.7V2C19.7,1,19,0.3,18,0.3z M18.7,18
		c0,0.4-0.3,0.7-0.7,0.7H2c-0.4,0-0.7-0.3-0.7-0.7V2c0-0.4,0.3-0.7,0.7-0.7h16c0.4,0,0.7,0.3,0.7,0.7V18z"/>
        <rect x="10" y="9.5" class="st0" width="5.5" height="1"/>
        <rect x="10" y="5.2" class="st0" width="5.5" height="1"/>
        <path class="st0" d="M5.3,11.8h0.6V11c0.5,0,0.8-0.2,1.1-0.5c0.3-0.3,0.4-0.6,0.4-1c0-0.3-0.1-0.5-0.2-0.7C7.1,8.7,6.9,8.5,6.7,8.3
		C6.5,8.2,6.2,8.1,5.8,7.9C5.4,7.8,5.2,7.7,5,7.5C4.8,7.4,4.8,7.2,4.8,6.9c0-0.3,0.1-0.5,0.2-0.6C5.1,6.1,5.4,6,5.7,6
		C6,6,6.2,6.1,6.4,6.3c0.2,0.2,0.3,0.5,0.3,0.8h0.7c0-0.5-0.1-0.9-0.4-1.2C6.7,5.7,6.4,5.5,6,5.4V4.6H5.4v0.8C5,5.5,4.7,5.6,4.4,5.9
		c-0.2,0.3-0.4,0.6-0.4,1c0,0.4,0.1,0.7,0.4,1c0.2,0.3,0.6,0.5,1.2,0.6C6,8.7,6.2,8.8,6.4,9c0.2,0.2,0.2,0.4,0.2,0.6
		c0,0.3-0.1,0.5-0.3,0.6c-0.2,0.2-0.4,0.2-0.8,0.2c-0.3,0-0.6-0.1-0.8-0.3C4.6,10,4.5,9.7,4.5,9.4H3.8c0,0.5,0.1,0.9,0.4,1.2
		C4.5,10.8,4.9,11,5.3,11V11.8z"/>
        <rect x="4.5" y="13.8" class="st0" width="11.1" height="1"/>
</g>
</svg>
