<?xml version="1.0" encoding="utf-8"?>
<!-- Generator: Adobe Illustrator 23.0.3, SVG Export Plug-In . SVG Version: 6.00 Build 0)  -->
<svg version="1.1" id="Layer_1" xmlns="http://www.w3.org/2000/svg" xmlns:xlink="http://www.w3.org/1999/xlink" x="0px" y="0px"
     viewBox="0 0 20 20" style="enable-background:new 0 0 20 20;" xml:space="preserve">
<style type="text/css">
	.st0{fill:#83A3D7;}
</style>
    <g>
	<path class="st0" d="M19.5,7.6l-9.3-7.5L0.5,7.6l0.6,0.8l0.7-0.6v11.9h2.9V9.4h10.5v10.3h2.9V7.8l0.7,0.6L19.5,7.6z M17.2,18.7
		h-0.9V8.4H3.7v10.3H2.8V7.1l7.4-5.7l7,5.6V18.7z"/>
        <path class="st0" d="M9.7,12.3H5.7v3.2v1v3.2h3.1h1h3.1v-4.2H9.7V12.3z M8.7,18.7H6.7v-2.2h2.1V18.7z M11.8,16.5v2.2H9.7v-2.2H11.8
		z M6.7,15.5v-2.2h2.1v2.2H6.7z"/>
</g>
</svg>
