<?xml version="1.0" encoding="UTF-8"?>
<svg width="545px" height="448px" viewBox="0 0 545 448" version="1.1" xmlns="http://www.w3.org/2000/svg" xmlns:xlink="http://www.w3.org/1999/xlink">
    <!-- Generator: Sketch 52.1 (67048) - http://www.bohemiancoding.com/sketch -->
    <title>view_list</title>
    <desc>Created with Sketch.</desc>
    <g id="Page-1" stroke="none" stroke-width="1" fill="none" fill-rule="evenodd">
        <g id="view_list" fill="#000000" fill-rule="nonzero">
            <path d="M161,0.5 L545,0.5 L545,128 L161,128 L161,0.5 Z M161,447.5 L161,320 L545,320 L545,447.5 L161,447.5 Z M161,288.5 L161,159.5 L545,159.5 L545,288.5 L161,288.5 Z M0.5,128 L0.5,0.5 L129.5,0.5 L129.5,128 L0.5,128 Z M0.5,447.5 L0.5,320 L129.5,320 L129.5,447.5 L0.5,447.5 Z M0.5,288.5 L0.5,159.5 L129.5,159.5 L129.5,288.5 L0.5,288.5 Z" id="Shape"></path>
        </g>
    </g>
</svg>