<!-- Generated by IcoMoon.io -->
<svg version="1.1" xmlns="http://www.w3.org/2000/svg" width="768" height="768" viewBox="0 0 768 768">
<title></title>
<g id="icomoon-ignore">
</g>
<path d="M223.5 384v64.5h-63v-64.5h63zM223.5 256.5v63h-63v-63h63zM607.5 384v64.5h-351v-64.5h351zM607.5 256.5v63h-351v-63h351zM672 544.5v-384h-576v384h576zM672 96c34.5 0 64.5 30 64.5 64.5l-1.5 384c0 34.5-28.5 63-63 63h-160.5v64.5h-255v-64.5h-160.5c-34.5 0-64.5-28.5-64.5-63v-384c0-34.5 30-64.5 64.5-64.5h576z"></path>
</svg>
