<!-- Generated by IcoMoon.io -->
<svg version="1.1" xmlns="http://www.w3.org/2000/svg" width="768" height="768" viewBox="0 0 768 768">
<title></title>
<g id="icomoon-ignore">
</g>
<path d="M576 592.5c27 0 48-21 48-48s-21-48-48-48-48 21-48 48 21 48 48 48zM624 304.5h-79.5v79.5h142.5zM192 592.5c27 0 48-21 48-48s-21-48-48-48-48 21-48 48 21 48 48 48zM640.5 256.5l96 127.5v160.5h-64.5c0 52.5-43.5 96-96 96s-96-43.5-96-96h-192c0 52.5-43.5 96-96 96s-96-43.5-96-96h-64.5v-352.5c0-34.5 30-64.5 64.5-64.5h448.5v129h96z"></path>
</svg>
