<svg xmlns="http://www.w3.org/2000/svg" viewBox="0 0 1226.72 528.56"><path fill="#7ca3dc" d="M833.82 30.18a29.09 29.09 0 0 1 8.83-21.36 30.25 30.25 0 0 1 42.71 0 29.12 29.12 0 0 1 8.83 21.36 29.09 29.09 0 0 1-8.83 21.36 30.25 30.25 0 0 1-42.71 0 29.06 29.06 0 0 1-8.83-21.36zm168.57 0a29.09 29.09 0 0 1 8.83-21.36 30.25 30.25 0 0 1 42.71 0 29.12 29.12 0 0 1 8.83 21.36 29.09 29.09 0 0 1-8.83 21.36 30.25 30.25 0 0 1-42.71 0 29.06 29.06 0 0 1-8.83-21.36zM668.75 520.59h136.69v7.97H668.75zM0 289.36h6.27A211.36 211.36 0 0 0 16.52 317a97.58 97.58 0 0 0 16.8 25.63 82.64 82.64 0 0 0 25.91 19.08q15.37 7.41 37 7.4A51.37 51.37 0 0 0 128.71 358q14.23-11.11 14.24-36.16 0-21.64-11.11-30.47a87.05 87.05 0 0 0-25.91-14L61.51 262Q53 259.18 43 254.91a67 67 0 0 1-18.51-12 58.27 58.27 0 0 1-14-19.65q-5.42-12-5.41-30.75a70.14 70.14 0 0 1 6.27-29.62 75.49 75.49 0 0 1 43-39.87 92.11 92.11 0 0 1 32.75-5.7q12.52 0 20.22 2t13.38 4q5.69 2 10.25 4a26.73 26.73 0 0 0 10.82 2q6.26 0 9.11-4.56h6.27v64.94h-6.27a246.19 246.19 0 0 0-9.11-24.2 97 97 0 0 0-12.25-20.79 49.8 49.8 0 0 0-17.66-14.24q-10.54-5.13-24.77-5.13-27.34 0-42.43 12.24t-15.05 32.76q0 18.23 12.81 27.62t37.88 17.37L121.88 229q26.76 9.12 43.85 25.06t17.08 42.14a79.94 79.94 0 0 1-6 30.18 73.28 73.28 0 0 1-17.66 25.91 90.07 90.07 0 0 1-28.48 17.94q-16.81 6.83-38.44 6.83a97.51 97.51 0 0 1-23.07-2.56q-10.54-2.56-19.36-5.41t-16.2-5.4a42.05 42.05 0 0 0-13.67-2.56q-6.27 0-9.11 2.56a23.73 23.73 0 0 0-4.56 5.41H0zm226.66 231.23h43.85V132.75h-43.85v-8h91.69v47.84h1.14a87.09 87.09 0 0 1 28.2-39.59q19.65-15.66 51-15.66a104.1 104.1 0 0 1 46.13 10.54 130.89 130.89 0 0 1 64.36 68.63 129.15 129.15 0 0 1-.28 98.81 140.42 140.42 0 0 1-27.05 41.86 132.4 132.4 0 0 1-39.58 29A108.45 108.45 0 0 1 394.72 377q-19.37 0-32.75-6.55A77.33 77.33 0 0 1 340 355.14a70.79 70.79 0 0 1-13.1-18.22 107.3 107.3 0 0 1-6.27-15.09h-1.13v198.76h43.85v8H226.66zm235.22-281.91a349.65 349.65 0 0 0-2.85-47q-2.86-20.78-10-35.59a53.3 53.3 0 0 0-19.93-22.78q-12.81-8-32.75-8-21.08 0-34.74 7.4a67.46 67.46 0 0 0-22.21 18.79 70.45 70.45 0 0 0-10 17.09 109.56 109.56 0 0 0-6 21.64 229 229 0 0 0-3.05 28.77q-.85 16.23-.85 38.44a272.92 272.92 0 0 0 2.85 38.73 119.68 119.68 0 0 0 10.82 36.16 69.2 69.2 0 0 0 22.5 26.48q14.52 10.25 38.44 10.25 23.34 0 37-9.11t20.5-26.2q6.83-17.09 8.54-41.29t1.73-53.78zm101.93 122.44h43.85V132.75h-43.85v-8h91.69v57.55h1.14a115.71 115.71 0 0 1 7.4-19.36 84.67 84.67 0 0 1 14.24-20.79 81.15 81.15 0 0 1 21.93-16.8q12.81-6.83 31-6.83 13.1 0 22.78 4.27A49.39 49.39 0 0 1 770 133.6a39.9 39.9 0 0 1 9.11 15.09 53.82 53.82 0 0 1 2.85 17.09q0 18.79-8.54 25.06a32.77 32.77 0 0 1-19.93 6.26q-25.07 0-25.06-15.95a24.54 24.54 0 0 1 1.14-8.26q1.13-3.12 2.56-6.27a52.65 52.65 0 0 0 2.56-7.12 43.77 43.77 0 0 0 1.14-11.39q0-18.22-19.93-18.22-9.12 0-19.36 6.83t-19.08 19.93q-8.84 13.11-14.81 31.61t-6 42.43v130.43h49.55v8H563.81zm232.36 0H840V132.75h-43.83v-8H889v236.37h43.85v8H796.17zm168.58 0h43.85V132.75h-43.85v-8h92.83v236.37h43.85v8H964.75zm201.6-22.21a30.14 30.14 0 1 1 8.83 21.36 29.09 29.09 0 0 1-8.83-21.36z"></path><path fill="#435363" d="M404.23 470.24a18.47 18.47 0 0 1-11.49 3.46 20.91 20.91 0 0 1-8.46-1.57 16.67 16.67 0 0 1-6-4.41 18.71 18.71 0 0 1-3.66-6.77 32.56 32.56 0 0 1-1.38-8.58 24.48 24.48 0 0 1 1.42-8.5 20.32 20.32 0 0 1 4-6.69 18 18 0 0 1 6.06-4.41 18.51 18.51 0 0 1 7.67-1.57 16.7 16.7 0 0 1 9 2.24 17.84 17.84 0 0 1 5.75 5.71 22.58 22.58 0 0 1 3 7.56 32.43 32.43 0 0 1 .67 7.79H380.3a16.13 16.13 0 0 0 .63 5.08 11.47 11.47 0 0 0 2.28 4.25 11.24 11.24 0 0 0 4 3 13.84 13.84 0 0 0 5.75 1.1 11.58 11.58 0 0 0 7-2 9.51 9.51 0 0 0 3.58-6h6.61q-1.36 6.85-5.92 10.31zm-1.61-26.13a11.47 11.47 0 0 0-2.44-3.66 11.59 11.59 0 0 0-3.62-2.44 11.46 11.46 0 0 0-4.6-.91 11.66 11.66 0 0 0-4.68.91 10.81 10.81 0 0 0-3.58 2.48 11.87 11.87 0 0 0-2.36 3.66 13.91 13.91 0 0 0-1 4.45h23.38a13.72 13.72 0 0 0-1.11-4.49zm26.65 28.73l-15.11-40.69h7.48L433 466.07h.16l11.1-33.92h7l-14.88 40.69zm56.91-2.6a18.47 18.47 0 0 1-11.49 3.46 20.91 20.91 0 0 1-8.46-1.57 16.67 16.67 0 0 1-6-4.41 18.71 18.71 0 0 1-3.66-6.77 32.56 32.56 0 0 1-1.38-8.58 24.48 24.48 0 0 1 1.42-8.5 20.32 20.32 0 0 1 4-6.69 18 18 0 0 1 6.06-4.41 18.51 18.51 0 0 1 7.67-1.57 16.7 16.7 0 0 1 9 2.24 17.84 17.84 0 0 1 5.75 5.71 22.58 22.58 0 0 1 3 7.56 32.43 32.43 0 0 1 .67 7.79h-30.5a16.13 16.13 0 0 0 .63 5.08 11.47 11.47 0 0 0 2.28 4.25 11.24 11.24 0 0 0 4 3 13.84 13.84 0 0 0 5.75 1.1 11.58 11.58 0 0 0 7-2 9.51 9.51 0 0 0 3.58-6h6.61q-1.36 6.85-5.93 10.31zm-1.61-26.13a11.47 11.47 0 0 0-2.44-3.66 11.59 11.59 0 0 0-3.62-2.44 11.46 11.46 0 0 0-4.6-.91 11.66 11.66 0 0 0-4.68.91 10.81 10.81 0 0 0-3.58 2.48 11.87 11.87 0 0 0-2.36 3.66 13.91 13.91 0 0 0-1 4.45h23.38a13.72 13.72 0 0 0-1.1-4.49zM508 432.15v8.58h.16a18.12 18.12 0 0 1 6-7.32 15 15 0 0 1 9-2.2v7.08a18.93 18.93 0 0 0-6.85 1.1 10.79 10.79 0 0 0-4.56 3.23 13.33 13.33 0 0 0-2.52 5.16 27.81 27.81 0 0 0-.79 7v18.1h-6.69v-40.73zm40.66 46.12a42.71 42.71 0 0 1-2.32 5 13.83 13.83 0 0 1-2.52 3.35 8.56 8.56 0 0 1-3.07 1.89 11.81 11.81 0 0 1-3.9.59 17.76 17.76 0 0 1-2.36-.16 11.16 11.16 0 0 1-2.28-.55v-6.14a11.35 11.35 0 0 0 2 .67 8.51 8.51 0 0 0 1.93.28 5.74 5.74 0 0 0 3.42-1 6 6 0 0 0 2.09-2.79l2.75-6.85-16.13-40.46h7.56l11.89 33.29h.16l11.41-33.29h7.08zm44.9-46.12v5.9h-8.11v25.27a7.29 7.29 0 0 0 .2 1.89 1.94 1.94 0 0 0 .75 1.1 3.27 3.27 0 0 0 1.53.51 22.21 22.21 0 0 0 2.56.12h3.07v5.9h-5.12a24 24 0 0 1-4.45-.35 6.51 6.51 0 0 1-3-1.3 5.53 5.53 0 0 1-1.69-2.68 15.44 15.44 0 0 1-.55-4.57v-25.89h-6.93v-5.9h6.93v-12.2h6.69v12.2zm15.3-15.51v21.49h.14a8.9 8.9 0 0 1 2.2-3.19 12.53 12.53 0 0 1 3.19-2.12 16.55 16.55 0 0 1 3.7-1.22 18.72 18.72 0 0 1 3.74-.39 17.68 17.68 0 0 1 6.69 1.1 11 11 0 0 1 4.33 3.07 11.39 11.39 0 0 1 2.32 4.68 25.22 25.22 0 0 1 .67 6v26.76h-6.69v-27.53a8.08 8.08 0 0 0-2.2-6 8.19 8.19 0 0 0-6.06-2.2 13.63 13.63 0 0 0-5.31.94 10 10 0 0 0-3.74 2.68 11.52 11.52 0 0 0-2.24 4.05 16.44 16.44 0 0 0-.75 5.08v23h-6.69v-56.2zm38.82 8.19v-8.19h6.69v8.19zm6.69 7.32v40.69h-6.69v-40.69zm18.14 0v6.45h.16q4.17-7.4 13.22-7.4a17.68 17.68 0 0 1 6.69 1.1 11 11 0 0 1 4.33 3.07 11.39 11.39 0 0 1 2.32 4.68 25.22 25.22 0 0 1 .67 6v26.76h-6.69v-27.52a8.08 8.08 0 0 0-2.2-6 8.19 8.19 0 0 0-6.06-2.2 13.63 13.63 0 0 0-5.31.94 10 10 0 0 0-3.74 2.68 11.52 11.52 0 0 0-2.24 4.05 16.44 16.44 0 0 0-.75 5.08v23h-6.69v-40.69zm69.72 52.18q-4.57 5-14.33 5a27.68 27.68 0 0 1-5.79-.63 17.75 17.75 0 0 1-5.35-2 12.46 12.46 0 0 1-4-3.7 10.5 10.5 0 0 1-1.73-5.59h6.69a5 5 0 0 0 1.14 3.07 8.34 8.34 0 0 0 2.6 2 12.61 12.61 0 0 0 3.34 1.14 18.1 18.1 0 0 0 3.46.35 12.42 12.42 0 0 0 5.59-1.14 10.51 10.51 0 0 0 3.78-3.15 13 13 0 0 0 2.17-4.84 27.09 27.09 0 0 0 .67-6.22v-2.68h-.16a11.25 11.25 0 0 1-5.23 5.55 16.26 16.26 0 0 1-7.44 1.77 17.91 17.91 0 0 1-7.95-1.65 16.62 16.62 0 0 1-5.67-4.45 18.9 18.9 0 0 1-3.42-6.53 26.94 26.94 0 0 1-1.14-7.91 30.9 30.9 0 0 1 .94-7.44 20.27 20.27 0 0 1 3.15-6.93 17.24 17.24 0 0 1 5.82-5.12 18.12 18.12 0 0 1 8.89-2 15 15 0 0 1 7.08 1.69 11.92 11.92 0 0 1 5 5.08h.08v-5.82h6.3v37.23q.07 9.96-4.49 14.92zM733.69 466a11 11 0 0 0 3.74-3.62 16.56 16.56 0 0 0 2.08-5.08 24.62 24.62 0 0 0 .67-5.67 22.35 22.35 0 0 0-.63-5.27 14.74 14.74 0 0 0-2-4.68 10.44 10.44 0 0 0-3.58-3.35 10.64 10.64 0 0 0-5.35-1.26 11.55 11.55 0 0 0-5.51 1.22 10.72 10.72 0 0 0-3.74 3.27 13.85 13.85 0 0 0-2.12 4.72 23 23 0 0 0-.67 5.59 28 28 0 0 0 .55 5.51 15.66 15.66 0 0 0 1.89 5 10.61 10.61 0 0 0 3.54 3.62 10.21 10.21 0 0 0 5.51 1.38 10.84 10.84 0 0 0 5.62-1.38zM781 438.05v-5.9h6.85v-6.06q0-5 2.87-7.52t8.38-2.56a17.23 17.23 0 0 1 2.16.16 11.65 11.65 0 0 1 2.16.47v5.83a8.37 8.37 0 0 0-1.89-.43 16.7 16.7 0 0 0-1.89-.12 6.48 6.48 0 0 0-3.78.94q-1.34.94-1.34 3.62v5.67h7.87v5.9h-7.87v34.79h-6.72v-34.79zm27.15 6.1a19 19 0 0 1 3.78-6.77 17.78 17.78 0 0 1 6.22-4.53 22.78 22.78 0 0 1 17 0 17.89 17.89 0 0 1 6.18 4.53 19 19 0 0 1 3.78 6.77 27.12 27.12 0 0 1 1.26 8.38 26.74 26.74 0 0 1-1.26 8.34 19.05 19.05 0 0 1-3.78 6.73 17.44 17.44 0 0 1-6.18 4.49 23.29 23.29 0 0 1-17 0 17.34 17.34 0 0 1-6.22-4.49 19 19 0 0 1-3.78-6.73 26.71 26.71 0 0 1-1.26-8.34 27.1 27.1 0 0 1 1.26-8.38zm6.81 15a13.73 13.73 0 0 0 2.71 4.8 11.77 11.77 0 0 0 4.05 3 12.35 12.35 0 0 0 9.84 0 11.79 11.79 0 0 0 4.05-3 13.76 13.76 0 0 0 2.71-4.8 22.43 22.43 0 0 0 0-13.14 14.22 14.22 0 0 0-2.71-4.84 11.59 11.59 0 0 0-4.05-3 12.34 12.34 0 0 0-9.84 0 11.57 11.57 0 0 0-4.05 3A14.18 14.18 0 0 0 815 446a22.43 22.43 0 0 0 0 13.14zm47.26-27v8.58h.16a18.12 18.12 0 0 1 6-7.32 15 15 0 0 1 9-2.2v7.08a18.93 18.93 0 0 0-6.85 1.1 10.8 10.8 0 0 0-4.57 3.23 13.35 13.35 0 0 0-2.52 5.16 27.79 27.79 0 0 0-.79 7v18.1h-6.69v-40.73zm54.63 0v6h.15a15.86 15.86 0 0 1 20-5.35 8.82 8.82 0 0 1 4.33 5.35 14.19 14.19 0 0 1 5.39-5.12 15.21 15.21 0 0 1 7.36-1.81 21.34 21.34 0 0 1 5.55.67 11.52 11.52 0 0 1 4.25 2.09 9.46 9.46 0 0 1 2.75 3.66 13.38 13.38 0 0 1 1 5.39v29.83h-6.69v-26.7a19 19 0 0 0-.32-3.54 7.23 7.23 0 0 0-1.18-2.87 5.9 5.9 0 0 0-2.4-1.93 9.55 9.55 0 0 0-4-.71 10.53 10.53 0 0 0-7.79 2.83 10.21 10.21 0 0 0-2.83 7.56v25.34h-6.69v-26.68a17.35 17.35 0 0 0-.35-3.62 7.7 7.7 0 0 0-1.22-2.87 5.71 5.71 0 0 0-2.32-1.89 9 9 0 0 0-3.74-.67 10 10 0 0 0-5 1.18 11.33 11.33 0 0 0-5.27 6.26 9.74 9.74 0 0 0-.59 3v25.34h-6.69v-40.74zm89.68 40.69v-6.45h-.16a13.68 13.68 0 0 1-5.43 5.55 16.27 16.27 0 0 1-7.79 1.77 18.25 18.25 0 0 1-6.69-1.06 10.67 10.67 0 0 1-4.33-3 11.4 11.4 0 0 1-2.32-4.68 25.17 25.17 0 0 1-.67-6v-26.82h6.69v27.55a8.08 8.08 0 0 0 2.2 6 8.18 8.18 0 0 0 6.06 2.2 13.63 13.63 0 0 0 5.31-.94 10 10 0 0 0 3.74-2.68 11.54 11.54 0 0 0 2.24-4.05 16.49 16.49 0 0 0 .75-5.08v-23h6.69v40.69zm24.28-40.69v6h.16a15.86 15.86 0 0 1 20-5.35 8.82 8.82 0 0 1 4.33 5.35 14.19 14.19 0 0 1 5.39-5.12 15.21 15.21 0 0 1 7.36-1.81 21.34 21.34 0 0 1 5.55.67 11.52 11.52 0 0 1 4.25 2.09 9.46 9.46 0 0 1 2.75 3.66 13.38 13.38 0 0 1 1 5.39v29.83h-6.69v-26.7a19 19 0 0 0-.32-3.54 7.23 7.23 0 0 0-1.18-2.87 5.9 5.9 0 0 0-2.4-1.93 9.55 9.55 0 0 0-4-.71 10.53 10.53 0 0 0-7.79 2.83 10.21 10.21 0 0 0-2.83 7.56v25.34h-6.69v-26.68a17.35 17.35 0 0 0-.35-3.62 7.7 7.7 0 0 0-1.22-2.87 5.71 5.71 0 0 0-2.32-1.89 9 9 0 0 0-3.74-.67 10 10 0 0 0-5 1.18 11.33 11.33 0 0 0-5.27 6.26 9.74 9.74 0 0 0-.59 3v25.34h-6.69v-40.74zm67.79 31.6a7.12 7.12 0 0 0 2.48 2.44 11.13 11.13 0 0 0 3.46 1.3 19.72 19.72 0 0 0 4 .39 24.51 24.51 0 0 0 3.31-.24 12.12 12.12 0 0 0 3.19-.87 6 6 0 0 0 2.4-1.85 4.93 4.93 0 0 0 .94-3.11 4.46 4.46 0 0 0-2-3.94 16.76 16.76 0 0 0-4.92-2.16q-3-.83-6.42-1.5a33.14 33.14 0 0 1-6.42-1.89 13.25 13.25 0 0 1-4.92-3.42 8.89 8.89 0 0 1-2-6.14 9.74 9.74 0 0 1 1.38-5.27 11.24 11.24 0 0 1 3.54-3.58 16.29 16.29 0 0 1 4.88-2 22.51 22.51 0 0 1 5.39-.67 32.14 32.14 0 0 1 6.38.59 14.76 14.76 0 0 1 5.16 2 10.6 10.6 0 0 1 3.58 3.94 15 15 0 0 1 1.57 6.18h-6.69a6.78 6.78 0 0 0-1-3.27 6.7 6.7 0 0 0-2.2-2.09 10.08 10.08 0 0 0-3-1.14 15.24 15.24 0 0 0-3.27-.35 19.79 19.79 0 0 0-3 .24 10.19 10.19 0 0 0-2.79.83 5.62 5.62 0 0 0-2 1.57 4 4 0 0 0-.79 2.56 3.76 3.76 0 0 0 1.22 2.87 9.71 9.71 0 0 0 3.11 1.89 27 27 0 0 0 4.25 1.26q2.36.51 4.72 1.06a51 51 0 0 1 4.92 1.34 16 16 0 0 1 4.25 2.09 10.2 10.2 0 0 1 3 3.27 9.61 9.61 0 0 1 1.14 4.88 11.33 11.33 0 0 1-1.54 6.14 12 12 0 0 1-4 3.94 16.77 16.77 0 0 1-5.59 2.09 33.06 33.06 0 0 1-6.18.59 28.6 28.6 0 0 1-6.45-.71 15.83 15.83 0 0 1-5.43-2.32 11.84 11.84 0 0 1-3.78-4.25 14.71 14.71 0 0 1-1.57-6.41h6.69a7.52 7.52 0 0 0 1 3.72z"></path></svg>