<!-- Generated by IcoMoon.io -->
<svg version="1.1" xmlns="http://www.w3.org/2000/svg" width="1024" height="1024" viewBox="0 0 1024 1024">
<title></title>
<g id="icomoon-ignore">
</g>
<path d="M608 416v224h-160v-224h-288v448h736v-448h-288zM480 160h-172.801l-140 224h280.801l32-224zM576 160l32 224h280.801l-140-224h-172.801zM128 400v-16l160-256h480l160 256v512h-800v-496zM512 160l-32 224h96l-32-224h-32zM480 416v192h96v-192h-96zM192 672v32h224v-32h-224zM192 800v32h224v-32h-224zM192 736v32h160v-32h-160z"></path>
</svg>
