<?xml version="1.0" encoding="utf-8"?>
<!-- Generator: Adobe Illustrator 23.0.3, SVG Export Plug-In . SVG Version: 6.00 Build 0)  -->
<svg version="1.1" id="Layer_1" xmlns="http://www.w3.org/2000/svg" xmlns:xlink="http://www.w3.org/1999/xlink" x="0px" y="0px"
     viewBox="0 0 20 20" style="enable-background:new 0 0 20 20;" xml:space="preserve">
<style type="text/css">
	.st0{fill:#83A3D7;}
</style>
    <g>
	<path class="st0" d="M17.7,9.8V5.8c0,0,0,0,0,0c0-0.1,0-0.1,0-0.2c0,0,0,0,0-0.1c0,0-0.1-0.1-0.1-0.1c0,0,0,0,0,0c0,0,0,0,0,0
		c0,0,0,0,0,0L9.3,1.3C9.2,1.3,9,1.3,8.9,1.3l-8.1,4c0,0,0,0,0,0c-0.1,0-0.1,0.1-0.1,0.1c0,0,0,0,0,0c0,0,0,0,0,0c0,0.1,0,0.1,0,0.2
		c0,0,0,0,0,0v8.6c0,0.2,0.1,0.4,0.3,0.4l8.1,4.1c0.1,0,0.1,0.1,0.2,0.1c0,0,0,0,0,0s0,0,0,0c0.1,0,0.1,0,0.2,0l4.5-2.1
		c0.5,0.2,1.1,0.4,1.7,0.4c2.2,0,4.1-1.8,4.1-4.1C19.5,11.7,18.8,10.5,17.7,9.8z M9.1,2.4l7,3.5L9.1,9.2l-7-3.5L9.1,2.4z M1.5,6.6
		l7.1,3.6v7.5l-7.1-3.6V6.6z M9.6,17.7v-7.5l7.1-3.5v2.6c-0.4-0.1-0.8-0.2-1.3-0.2c-2.2,0-4.1,1.8-4.1,4.1c0,1.2,0.6,2.3,1.4,3
		L9.6,17.7z M15.4,16.2c-1.7,0-3.1-1.4-3.1-3.1s1.4-3.1,3.1-3.1c0,0,0,0,0,0c0.3,0,0.7,0.1,1,0.2c0,0,0,0,0,0
		c1.2,0.4,2.1,1.6,2.1,2.9C18.5,14.8,17.1,16.2,15.4,16.2z"/>
        <path class="st0" d="M16.7,11.6l-1.7,2l-0.9-0.8c-0.2-0.2-0.5-0.2-0.7,0c-0.2,0.2-0.2,0.5,0,0.7l1.2,1.1c0.1,0.1,0.2,0.1,0.3,0.1
		c0,0,0,0,0,0c0.1,0,0.3-0.1,0.3-0.2l2-2.4c0.2-0.2,0.1-0.5-0.1-0.7C17.1,11.3,16.8,11.4,16.7,11.6z"/>
</g>
</svg>
