<?xml version="1.0" encoding="utf-8"?>
<!-- Generator: Adobe Illustrator 23.0.3, SVG Export Plug-In . SVG Version: 6.00 Build 0)  -->
<svg version="1.1" id="Layer_1" xmlns="http://www.w3.org/2000/svg" xmlns:xlink="http://www.w3.org/1999/xlink" x="0px" y="0px"
     viewBox="0 0 20 20" style="enable-background:new 0 0 20 20;" xml:space="preserve">
<style type="text/css">
	.st0{fill:#1E1E1E;}
</style>
    <g>
	<path class="st0" d="M13.5,5.9C13.5,5.8,13.4,5.8,13.5,5.9l-1.5-2.3c-0.1-0.1-0.2-0.2-0.4-0.2H7.8c-0.2,0-0.3,0.1-0.4,0.2L5.9,5.8
		L5.8,5.9l0,5.4c0,0.3,0.2,0.5,0.5,0.5H13c0.3,0,0.5-0.2,0.5-0.5V6C13.5,6,13.5,6,13.5,5.9L13.5,5.9z M7.2,5.6L8,4.3h3.3l0.8,1.2
		H7.2z M6.8,10.8V6.5h5.8v4.3H6.8z"/>
        <path class="st0" d="M14.9,2.1c-1.4-1.4-3.3-2.2-5.3-2.2c-4.1,0-7.4,3.3-7.4,7.4c0,1.9,0.7,3.8,2.1,5.2c0.3,0.4,0.7,0.7,1,1
		c2.5,2.1,3.2,3.5,3.5,5.1c0,0.1,0,0.2,0,0.3c0.1,0.5,0.2,1.2,0.8,1.2c0.6,0,0.7-0.7,0.8-1.2c0-0.1,0-0.2,0-0.3
		c0.3-1.6,1-2.9,3.5-5.1c0.4-0.3,0.7-0.7,1-1c1.4-1.4,2.1-3.2,2.1-5.2C17.1,5.4,16.3,3.5,14.9,2.1z M16.4,7.3c0,1.8-0.7,3.4-1.9,4.7
		l0,0c-0.3,0.3-0.6,0.7-1,1c-2.6,2.3-3.4,3.7-3.7,5.5c0,0.1,0,0.2-0.1,0.3c0,0.1,0,0.2-0.1,0.4c0-0.1-0.1-0.3-0.1-0.4
		c0-0.1,0-0.2-0.1-0.3c-0.4-1.8-1.1-3.2-3.7-5.5c-0.4-0.3-0.7-0.6-1-1c-1.2-1.3-1.9-2.9-1.9-4.7c0-3.7,3-6.7,6.7-6.7
		C13.4,0.6,16.4,3.6,16.4,7.3z"/>
</g>
</svg>
