<!-- Generated by IcoMoon.io -->
<svg version="1.1" xmlns="http://www.w3.org/2000/svg" width="1024" height="1024" viewBox="0 0 1024 1024">
<title></title>
<g id="icomoon-ignore">
</g>
<path d="M800 800h64.183c52.918 0 95.817-43.019 95.817-95.982v-288.037c0-53.009-42.898-95.982-95.817-95.982h-64.183v-224.012c0-35.339-28.51-63.988-63.918-63.988h-480.165c-35.301 0-63.918 28.398-63.918 63.988v224.012h-64.183c-52.918 0-95.817 43.019-95.817 95.982v288.037c0 53.009 42.898 95.982 95.817 95.982h64.183v128.012c0 35.339 28.51 63.988 63.918 63.988h480.165c35.301 0 63.918-28.398 63.918-63.988v-128.012zM192 768h-63.765c-35.488 0-64.235-28.693-64.235-64.088v-287.823c0-35.495 28.759-64.088 64.235-64.088h735.531c35.488 0 64.235 28.693 64.235 64.088v287.823c0 35.495-28.759 64.088-64.235 64.088h-63.765v-96h-608v96zM255.999 64h480.003c17.448 0 31.999 14.284 31.999 31.905v224.095h-544v-224.095c0-17.408 14.326-31.905 31.999-31.905zM224 704h544v224.095c0 17.408-14.326 31.905-31.999 31.905h-480.003c-17.448 0-31.999-14.284-31.999-31.905v-224.095zM768 512c17.673 0 32-14.327 32-32s-14.327-32-32-32c-17.673 0-32 14.327-32 32s14.327 32 32 32v0zM256 768v32h480v-32h-480zM256 864v32h480v-32h-480z"></path>
</svg>
