<svg width="20" height="20" viewBox="0 0 20 20" fill="none" xmlns="http://www.w3.org/2000/svg">
<path d="M19.2308 11.6829C19.2308 11.6624 19.2308 11.639 19.2294 11.6292L19.2069 11.5506C19.1981 11.5296 19.1932 11.5233 19.1928 11.5228L19.1859 11.5135L17.2234 8.63151C17.1653 8.54463 17.0692 8.49338 16.9657 8.49338H14.6987V4.72845C14.6987 4.7099 14.6987 4.68452 14.6972 4.67378L14.6747 4.59618C14.6664 4.57617 14.6611 4.56836 14.6601 4.5669L14.6542 4.55909L12.6912 1.67706C12.6332 1.59019 12.537 1.53845 12.4335 1.53845H7.46407C7.3606 1.53845 7.26543 1.58872 7.2093 1.67267L5.24679 4.54884C5.2385 4.56055 5.23215 4.57373 5.22483 4.58886L5.21019 4.61961L5.20238 4.65963C5.1975 4.68403 5.19311 4.70648 5.19311 4.7221V8.4929H3.04074C2.93727 8.4929 2.8421 8.54317 2.78597 8.62711L0.822974 11.5033C0.814189 11.515 0.808332 11.5282 0.801011 11.5433L0.786857 11.5736L0.77856 11.6141C0.774168 11.6375 0.769287 11.6609 0.769287 11.677V18.6378C0.769287 18.8091 0.908386 18.9482 1.0797 18.9482H9.95955L10.0001 18.9433L10.0459 18.9487H18.9204C19.0917 18.9487 19.2308 18.8091 19.2308 18.6383V11.6829ZM14.6987 9.1142H16.7998L18.3323 11.3661H14.6987V9.1142ZM7.6305 2.15976H12.2671L13.7992 4.41169H6.09115L7.6305 2.15976ZM3.20717 9.1142H5.19311V11.3661H1.66733L3.20717 9.1142ZM9.65987 18.3333H1.39645V11.9933H9.65987V18.3333ZM6.22732 11.3788V11.3666H5.82027V5.03886H14.0837V11.3661H13.6644V11.3783H6.22732V11.3788ZM18.6159 18.3333H10.3524V11.9933H18.6159V18.3333Z" fill="#83A3D7" stroke="#83A3D7" stroke-width="0.3"/>
</svg>
