<?xml version="1.0" encoding="utf-8"?>
<!-- Generator: Adobe Illustrator 23.0.3, SVG Export Plug-In . SVG Version: 6.00 Build 0)  -->
<svg version="1.1" id="Layer_1" xmlns="http://www.w3.org/2000/svg" xmlns:xlink="http://www.w3.org/1999/xlink" x="0px" y="0px"
     viewBox="0 0 20 20" style="enable-background:new 0 0 20 20;" xml:space="preserve">
<style type="text/css">
	.st0{fill:#1E1E1E;}
</style>
    <path class="st0" d="M19.4,11.6L19.4,11.6c0-0.1-0.1-0.2-0.1-0.2l-2-2.9c-0.1-0.1-0.2-0.2-0.4-0.2h-2.1V4.7c0,0,0-0.1,0-0.1l0-0.1
	c0,0,0,0,0-0.1l-2-2.9c-0.1-0.1-0.2-0.2-0.4-0.2h-5c-0.2,0-0.3,0.1-0.4,0.2l-2,2.9c0,0,0,0,0,0.1l0,0.1c0,0,0,0.1,0,0.1v3.6H3
	c-0.2,0-0.3,0.1-0.4,0.2l-2,2.9l0,0.1l0,0.1c0,0,0,0.1,0,0.1v7c0,0.3,0.2,0.5,0.5,0.5h17.8c0.3,0,0.5-0.2,0.5-0.5L19.4,11.6
	C19.4,11.7,19.4,11.6,19.4,11.6z M2,11.2l1.3-2H5v2H2z M6.4,4.3l1.3-2h4.5l1.3,2H6.4z M14.8,11.2v-2h1.9l1.3,2H14.8z M10.5,18.2v-6
	h8v6H10.5z M6.4,11.2l-0.4,0v-6h8v6L6.4,11.2z M9.5,12.1v6h-8v-6H9.5z M5.2,4.6L5.2,4.6L5.2,4.6L5.2,4.6z M0.8,11.5
	C0.8,11.5,0.8,11.5,0.8,11.5L0.8,11.5L0.8,11.5z"/>
</svg>
