<?xml version="1.0" encoding="utf-8"?>
<!-- Generator: Adobe Illustrator 23.0.3, SVG Export Plug-In . SVG Version: 6.00 Build 0)  -->
<svg version="1.1" id="Layer_1" xmlns="http://www.w3.org/2000/svg" xmlns:xlink="http://www.w3.org/1999/xlink" x="0px" y="0px"
     viewBox="0 0 20 20" style="enable-background:new 0 0 20 20;" xml:space="preserve">
<style type="text/css">
	.st0{fill:#83A3D7;}
</style>
    <g>
	<path class="st0" d="M15.6,10.9l-2.3-3.5c-0.1-0.1-0.2-0.2-0.4-0.2H7.2C7,7.1,6.8,7.2,6.8,7.3l-2.3,3.3l0,0l-0.1,8.2
		c0,0.3,0.2,0.5,0.5,0.5h10.2c0.3,0,0.5-0.2,0.5-0.5v-7.9L15.6,10.9z M12.6,8.1l1.6,2.3H5.9l1.6-2.3H12.6z M14.6,11.4v7H5.4v-7H14.6
		z"/>
        <polygon class="st0" points="9.8,4.1 8.2,4.1 10.1,6 12,4.1 10.4,4.1 10.4,0.8 5.4,0.8 5.4,1.4 9.8,1.4 	"/>
</g>
</svg>
