<!-- Generated by IcoMoon.io -->
<svg version="1.1" xmlns="http://www.w3.org/2000/svg" width="768" height="768" viewBox="0 0 768 768">
<title></title>
<g id="icomoon-ignore">
</g>
<path d="M384 544.5c34.5 0 64.5-30 64.5-64.5s-30-64.5-64.5-64.5-64.5 30-64.5 64.5 30 64.5 64.5 64.5zM288 288h192l-96-141zM550.5 288h153c18 0 33 13.5 33 31.5-25.969 103.531-55.279 203.721-82.5 306-7.5 27-31.5 46.5-61.5 46.5h-417c-30 0-54-19.5-61.5-46.5l-81-297c-1.5-3-1.5-6-1.5-9 0-18 15-31.5 33-31.5h153l139.5-210c6-9 16.5-13.5 27-13.5s21 4.5 27 13.5z"></path>
</svg>
