<?xml version="1.0" encoding="utf-8"?>
<!-- Generator: Adobe Illustrator 23.0.3, SVG Export Plug-In . SVG Version: 6.00 Build 0)  -->
<svg version="1.1" id="Layer_1" xmlns="http://www.w3.org/2000/svg" xmlns:xlink="http://www.w3.org/1999/xlink" x="0px" y="0px"
     viewBox="0 0 20 20" style="enable-background:new 0 0 20 20;" xml:space="preserve">
<style type="text/css">
	.st0{fill:#1E1E1E;}
</style>
    <path class="st0" d="M19.2,15.7h-1.8V6.8h-1.2V1H7.2v5.8H5.3v7.9c-0.5,0.1-1,0.5-1.2,1H2.8V0.3h-2v1h1v15.4h2.1
	c0.1,1,0.9,1.8,1.9,1.8c1,0,1.9-0.8,1.9-1.8h5.4c0.1,1,0.9,1.8,1.9,1.8s1.9-0.8,1.9-1.8h2.3V15.7z M10.7,2h1.8V3h-1.8V2z M8.2,2h1.5
	V4h3.8V2h1.8v4.8H8.2V2z M9.7,7.8h2.8v1.7H9.7V7.8z M8.7,7.8v2.7h4.8V7.8h2.8v7.4c-0.4-0.4-0.9-0.6-1.4-0.6c-0.7,0-1.4,0.4-1.7,1
	H7.5c-0.2-0.5-0.7-0.8-1.2-1V7.8H8.7z M5.8,17.5c-0.5,0-0.9-0.4-0.9-0.9c0-0.5,0.4-0.9,0.9-0.9c0.5,0,0.9,0.4,0.9,0.9
	C6.7,17,6.3,17.5,5.8,17.5z M15,17.5c-0.5,0-0.9-0.4-0.9-0.9c0-0.5,0.4-0.9,0.9-0.9s0.9,0.4,0.9,0.9C15.9,17,15.5,17.5,15,17.5z"/>
</svg>
