<?xml version="1.0" encoding="utf-8"?>
<!-- Generator: Adobe Illustrator 23.0.3, SVG Export Plug-In . SVG Version: 6.00 Build 0)  -->
<svg version="1.1" id="Layer_1" xmlns="http://www.w3.org/2000/svg" xmlns:xlink="http://www.w3.org/1999/xlink" x="0px" y="0px"
     viewBox="0 0 20 20" style="enable-background:new 0 0 20 20;" xml:space="preserve">
<style type="text/css">
	.st0{fill:#83A3D7;}
</style>
    <path class="st0" d="M19.2,16.4h-1.8V7.6h-1.2V1.8H7.2v5.8H5.3v7.9c-0.5,0.1-1,0.5-1.2,1H2.8V1h-2v1h1v15.4h2.1
	c0.1,1,0.9,1.8,1.9,1.8c1,0,1.9-0.8,1.9-1.8h5.4c0.1,1,0.9,1.8,1.9,1.8s1.9-0.8,1.9-1.8h2.3V16.4z M10.7,2.8h1.8v0.9h-1.8V2.8z
	 M8.2,2.8h1.5v1.9h3.8V2.8h1.8v4.8H8.2V2.8z M9.7,8.6h2.8v1.7H9.7V8.6z M8.7,8.6v2.7h4.8V8.6h2.8V16c-0.4-0.4-0.9-0.6-1.4-0.6
	c-0.7,0-1.4,0.4-1.7,1H7.5c-0.2-0.5-0.7-0.8-1.2-1V8.6H8.7z M5.8,18.2c-0.5,0-0.9-0.4-0.9-0.9s0.4-0.9,0.9-0.9
	c0.5,0,0.9,0.4,0.9,0.9S6.3,18.2,5.8,18.2z M15,18.2c-0.5,0-0.9-0.4-0.9-0.9s0.4-0.9,0.9-0.9s0.9,0.4,0.9,0.9S15.5,18.2,15,18.2z"/>
</svg>
